<svg xmlns="http://www.w3.org/2000/svg"  viewBox="0 0 30 30" width="30px" height="30px"><path d="M 7 3 A 1.0001 1.0001 0 0 0 6 4 L 6 21 L 4 21 A 1.0001 1.0001 0 0 0 3 22 C 3 24.749516 5.2504839 27 8 27 L 21 27 A 1.0001 1.0001 0 0 0 21.099609 26.994141 C 23.803228 26.940077 26 24.715922 26 22 L 26 4 A 1.0001 1.0001 0 0 0 25 3 L 7 3 z M 8 5 L 24 5 L 24 22 C 24 23.668484 22.668484 25 21 25 C 19.331516 25 18 23.668484 18 22 A 1.0001 1.0001 0 0 0 17 21 L 8 21 L 8 5 z M 11 8 L 11 10 L 13 10 L 13 8 L 11 8 z M 15 8 L 15 10 L 21 10 L 21 8 L 15 8 z M 11 12 L 11 14 L 13 14 L 13 12 L 11 12 z M 15 12 L 15 14 L 21 14 L 21 12 L 15 12 z M 11 16 L 11 18 L 13 18 L 13 16 L 11 16 z M 15 16 L 15 18 L 21 18 L 21 16 L 15 16 z"/></svg>