<svg xmlns="http://www.w3.org/2000/svg"  viewBox="0 0 64 64" width="64px" height="64px"><path d="M54,43.5V52c0,5.35254-4.11768,9.53223-4.293,9.707A1.00012,1.00012,0,0,1,49,62H34a.99071.99071,0,0,1-.45947-.1123c-.17383-.08985-4.26758-2.2461-5.28076-6.02832L24.144,44.48633a3.35754,3.35754,0,0,1,.26416-2.66309,3.55717,3.55717,0,0,1,2.18506-1.70508c.917-.24414,2.67871-.2832,4.17871,2.22071L32,44.38672V31.5a3.5,3.5,0,0,1,7,0v4.83789a3.50026,3.50026,0,0,1,4.831,2.08594,3.50007,3.50007,0,0,1,5,2A3.49957,3.49957,0,0,1,54,43.5ZM35.5,26a5.4535,5.4535,0,0,1,1.91827.35272C36.61267,24.36993,34.6767,22,30,22c-6.12085,0-7.55353,4.06207-7.89124,6h9.15381A5.4924,5.4924,0,0,1,35.5,26ZM41,32.6178V34.02a5.47848,5.47848,0,0,1,3,1.23816V12H16V44h6.02087A5.31092,5.31092,0,0,1,22.66,40.85a5.54826,5.54826,0,0,1,3.42-2.66,5.01582,5.01582,0,0,1,1.33-.18,5.14279,5.14279,0,0,1,2.59.72V34H22a4.00427,4.00427,0,0,1-4-4V29a.99974.99974,0,0,1,1-1h1.09631a8.86736,8.86736,0,0,1,7.19086-7.73944A2.9687,2.9687,0,0,1,27,19a3,3,0,0,1,6,0,2.96851,2.96851,0,0,1-.28711,1.26056A8.86745,8.86745,0,0,1,39.90369,28H41a.99974.99974,0,0,1,1,1v1A3.96563,3.96563,0,0,1,41,32.6178ZM31,19a1,1,0,1,0-1,1A1.001,1.001,0,0,0,31,19ZM22,32h8v-.5a5.46409,5.46409,0,0,1,.21368-1.5H20A2.00229,2.00229,0,0,0,22,32Zm4.35,24.46A8.60914,8.60914,0,0,0,26.94,58H13a3.00887,3.00887,0,0,1-3-3V5a3.00883,3.00883,0,0,1,3-3H47a3.00879,3.00879,0,0,1,3,3V38.03a1.6332,1.6332,0,0,0-.22.02A5.46456,5.46456,0,0,0,46,36.02844V11a.99974.99974,0,0,0-1-1H15a.99974.99974,0,0,0-1,1V45a.99974.99974,0,0,0,1,1h7.56073ZM26,7a.99974.99974,0,0,0,1,1h6a1,1,0,0,0,0-2H27A.99974.99974,0,0,0,26,7Z"/></svg>