<svg xmlns="http://www.w3.org/2000/svg"  viewBox="0 0 64 64" width="64px" height="64px"><path d="M26,7a.99974.99974,0,0,1,1-1h6a1,1,0,0,1,0,2H27A.99974.99974,0,0,1,26,7ZM54,43.5V52c0,5.35254-4.11768,9.53223-4.293,9.707A1.00012,1.00012,0,0,1,49,62H34a.99071.99071,0,0,1-.45947-.1123A12.60181,12.60181,0,0,1,29.23285,58H13a3.00328,3.00328,0,0,1-3-3V5a3.00328,3.00328,0,0,1,3-3H47a3.00328,3.00328,0,0,1,3,3V40.03876A3.48166,3.48166,0,0,1,54,43.5ZM28.30548,56c-.01392-.04767-.03284-.09247-.04571-.14062L24.69183,46H15a.99974.99974,0,0,1-1-1V11a.99974.99974,0,0,1,1-1H45a.99974.99974,0,0,1,1,1V38.04071a3.49039,3.49039,0,0,1,2,1.01392V5a1.001,1.001,0,0,0-1-1H13a1.001,1.001,0,0,0-1,1V55a1.001,1.001,0,0,0,1,1Zm4.04559-26H20a2.00229,2.00229,0,0,0,2,2H32v-.5A3.45946,3.45946,0,0,1,32.35107,30Zm5.54041-2C37.5542,26.06409,36.12231,22,30,22c-6.12085,0-7.55353,4.06207-7.89124,6ZM30,20a1,1,0,1,0-1-1A1.001,1.001,0,0,0,30,20Zm8.64893,10A3.45946,3.45946,0,0,1,39,31.5v.2218A1.99369,1.99369,0,0,0,40,30ZM39,36.33789a3.50026,3.50026,0,0,1,4.831,2.08594c.05439-.02954.11286-.05219.169-.07892V12H16V44h8.04407a3.32408,3.32408,0,0,1,.36413-2.17676,3.55717,3.55717,0,0,1,2.18506-1.70508c.917-.24414,2.67871-.2832,4.17871,2.22071L32,44.38672V34H22a4.00427,4.00427,0,0,1-4-4V29a.99974.99974,0,0,1,1-1h1.09631a8.86736,8.86736,0,0,1,7.19086-7.73944A2.9687,2.9687,0,0,1,27,19a3,3,0,0,1,6,0,2.96851,2.96851,0,0,1-.28711,1.26056A8.86745,8.86745,0,0,1,39.90369,28H41a.99974.99974,0,0,1,1,1v1a3.99577,3.99577,0,0,1-3,3.858ZM52,43.5a1.5,1.5,0,0,0-3,0V45a1,1,0,0,1-2,0V41.5a1.5,1.5,0,0,0-3,0V45a1,1,0,0,1-2,0V39.5a1.5,1.5,0,0,0-3,0V45a1,1,0,0,1-2,0V31.5a1.5,1.5,0,0,0-3,0V48a1,1,0,0,1-1.85742.51465l-3.08594-5.14746c-.94824-1.584-1.69775-1.38281-1.9458-1.31739a1.552,1.552,0,0,0-.95264.74122,1.3536,1.3536,0,0,0-.11767,1.06152L30.166,55.26074c.69482,2.58106,3.34472,4.29785,4.0957,4.73926h14.2998C49.41553,59.03125,52,55.78516,52,52Z"/></svg>